<?xml version="1.0" encoding="UTF-8" standalone="no"?>
<!-- Created with Inkscape (http://www.inkscape.org/) -->

<svg
   width="50mm"
   height="18mm"
   viewBox="0 0 87.76062 22.606453"
   version="1.1"
   id="svg1"
   xmlns:inkscape="http://www.inkscape.org/namespaces/inkscape"
   xmlns:sodipodi="http://sodipodi.sourceforge.net/DTD/sodipodi-0.dtd"
   xmlns="http://www.w3.org/2000/svg"
   xmlns:svg="http://www.w3.org/2000/svg">
  <sodipodi:namedview
     id="namedview1"
     pagecolor="#ffffff"
     bordercolor="#666666"
     borderopacity="1.0"
     inkscape:showpageshadow="2"
     inkscape:pageopacity="0.0"
     inkscape:pagecheckerboard="0"
     inkscape:deskcolor="#d1d1d1"
     inkscape:document-units="mm"
     inkscape:export-bgcolor="#00000000" />
  <defs
     id="defs1">
    <inkscape:path-effect
       effect="offset"
       id="path-effect15"
       is_visible="true"
       lpeversion="1.2"
       linejoin_type="miter"
       unit="mm"
       offset="0.5"
       miter_limit="4"
       attempt_force_join="false"
       update_on_knot_move="true" />
    <inkscape:path-effect
       effect="offset"
       id="path-effect14"
       is_visible="true"
       lpeversion="1.2"
       linejoin_type="miter"
       unit="mm"
       offset="0.1"
       miter_limit="4"
       attempt_force_join="false"
       update_on_knot_move="true" />
  </defs>
  <g
     inkscape:label="Calque 1"
     inkscape:groupmode="layer"
     id="layer1"
     transform="translate(-66.102159,-119.50422)">
    <g
       id="g15"
       transform="translate(-10.089242,41.171218)"
       inkscape:export-filename="g15.png"
       inkscape:export-xdpi="96"
       inkscape:export-ydpi="96">
      <path
         d="m 137.49023,82.644531 c -1.27426,0 -2.46023,0.44016 -3.57812,1.298828 -1.09147,0.838378 -2.04855,1.915896 -2.87305,3.222657 -0.51365,0.809404 -0.96299,1.685552 -1.34961,2.628906 -0.38688,0.943994 -0.68921,1.904186 -0.90625,2.880859 -0.2176,0.979184 -0.32812,1.919504 -0.32812,2.81836 0,1.614242 0.33208,2.90798 1.0625,3.794921 0.73397,0.891258 1.66945,1.333988 2.82422,1.333988 0.99763,0 2.01668,-0.32285 3.05468,-0.929691 1.05553,-0.623711 2.03244,-1.508788 2.93164,-2.640625 0.91527,-1.120415 1.65007,-2.474647 2.20704,-4.052734 0.57835,-1.610018 0.86328,-3.337292 0.86328,-5.181641 0,-0.810548 -0.10293,-1.59315 -0.31055,-2.34375 -0.2178,-0.804194 -0.60929,-1.475196 -1.18359,-1.998047 -0.60003,-0.575813 -1.42475,-0.832031 -2.41407,-0.832031 z m -24.05664,0.04492 -4.70312,1.789063 0.0937,1.390625 v 0.0059 c 0.0596,0.669887 0.11921,1.557643 0.17969,2.675781 0.075,1.109534 0.13445,2.22637 0.17968,3.357422 0.0587,1.085612 0.0888,2.149775 0.0898,3.191406 l -1.18555,5.177731 4.89453,-0.601559 0.0937,-0.316406 c 0.0742,-0.252287 0.1493,-0.496786 0.22656,-0.744141 0.0772,-0.262414 0.14517,-0.518124 0.20704,-0.765625 0.10535,-0.421403 0.20986,-0.865301 0.31445,-1.328125 l 0.004,-0.01563 c 0.11325,-0.439865 0.20441,-0.846925 0.27929,-1.226562 0.20826,-0.445799 0.48307,-1.022823 0.83399,-1.753906 0.37669,-0.768464 0.77689,-1.590132 1.19726,-2.460938 0.43878,-0.892674 0.83794,-1.741408 1.19727,-2.535156 0.61547,-1.290987 1.24519,-2.57375 1.89062,-3.84961 l 0.29102,-0.572265 -4.57031,-1.03125 -0.14063,0.433594 c -0.14918,0.462477 -0.2994,0.911234 -0.44922,1.345703 l -0.002,0.0039 -0.002,0.0059 c -0.13421,0.41751 -0.273,0.835327 -0.42383,1.257813 -0.15377,0.451695 -0.33414,0.931209 -0.50781,1.404297 0.005,-0.446095 0.0117,-0.858282 0.0117,-1.357422 z m -18.740231,0.134766 -5.017578,0.660156 -0.07227,0.347656 c -0.211128,1.025477 -0.413357,2.044445 -0.609375,3.054688 -0.195572,1.007951 -0.390512,2.001391 -0.585938,2.978515 -0.181066,0.905339 -0.3778,1.922505 -0.589844,3.058594 -0.196041,1.11593 -0.392884,2.277945 -0.589843,3.490234 -0.180943,1.206285 -0.353783,2.405336 -0.519532,3.595708 l -0.109375,0.79101 0.759766,-0.24609 c 0.527202,-0.17099 1.123999,-0.31069 1.802734,-0.41406 0.690231,-0.11751 1.380471,-0.197497 2.080078,-0.242193 0.711519,-0.05929 1.35116,-0.08789 1.921875,-0.08789 h 0.351563 c 0.05619,0.009 0.111366,0.02148 0.167969,0.02148 h 0.68164 v -0.5 c 0,-0.02842 -0.04089,-0.275422 -0.0957,-0.529297 -0.04411,-0.279368 -0.09056,-0.604255 -0.134765,-0.972656 -0.04393,-0.380741 -0.07145,-0.737125 -0.08594,-1.070312 l -0.02148,-0.478516 h -0.478516 c -0.337366,0 -0.728305,0.0062 -1.169922,0.02148 -0.205396,2.33e-4 -0.389033,0.01585 -0.583984,0.02344 0.09267,-0.594681 0.187243,-1.192987 0.324219,-1.91211 0.179991,-0.944945 0.376888,-1.92128 0.585937,-2.921875 0.225324,-1.021471 0.441545,-1.97486 0.652344,-2.863281 z m 30.427731,0 c -0.92817,0 -1.8274,0.07036 -2.68945,0.208984 -0.85355,0.12194 -1.67682,0.267608 -2.4707,0.435547 l -0.3418,0.07227 -0.0488,0.34375 c -0.39091,2.70632 -0.80578,5.397602 -1.24218,8.076171 -0.41855,2.645796 -0.98551,5.276253 -1.70313,7.892579 l -0.14258,0.523434 0.53321,0.10157 c 0.51493,0.0965 1.06372,0.14453 1.64843,0.14453 1.02298,0 2.05175,-0.13452 3.08399,-0.40039 1.03362,-0.266249 1.99764,-0.650107 2.88867,-1.150394 0.94548,-0.512802 1.71216,-1.160703 2.28711,-1.949219 0.60678,-0.825896 0.91015,-1.74233 0.91015,-2.757813 0,-0.700803 -0.11449,-1.326256 -0.36328,-1.859375 -0.23059,-0.494111 -0.51173,-0.912544 -0.85351,-1.236328 -0.0488,-0.04623 -0.096,-0.07991 -0.14453,-0.123047 0.30482,-0.190081 0.60069,-0.415442 0.88672,-0.683593 0.52785,-0.494869 0.96157,-1.085253 1.30273,-1.767579 0.3538,-0.707605 0.52734,-1.473593 0.52734,-2.300781 0,-0.893078 -0.21723,-1.647253 -0.71093,-2.201172 -0.44023,-0.525128 -0.97846,-0.881634 -1.63282,-1.076172 -0.59396,-0.191525 -1.17103,-0.292968 -1.72461,-0.292968 z m -41.253903,0.04492 c -0.599592,0 -1.268195,0.08217 -2.001953,0.238281 -0.70313,0.152856 -1.364436,0.321042 -1.980468,0.505859 l -0.304688,0.0918 -0.04492,0.314453 c -0.08933,0.610392 -0.209818,1.325867 -0.359375,2.148438 -0.150171,0.810934 -0.313865,1.675403 -0.49414,2.591797 -0.180475,0.917422 -0.363091,1.826947 -0.544922,2.736328 -0.164975,0.884852 -0.329308,1.71688 -0.494141,2.496093 -0.405956,1.939567 -0.834022,3.923021 -1.285156,5.953125 l -0.166016,0.748048 5.001953,-0.984376 0.05273,-0.347656 c 0.0452,-0.301352 0.08966,-0.601633 0.134765,-0.902344 0.04396,-0.293037 0.09567,-0.587747 0.154297,-0.880859 l 0.002,-0.01172 0.002,-0.01367 c 0.07447,-0.506395 0.164729,-1.057382 0.269532,-1.65625 0.0803,-0.458872 0.167575,-0.864534 0.255859,-1.267578 0.751243,-0.02532 1.469619,-0.218495 2.150391,-0.589844 0.737142,-0.393148 1.382689,-0.924284 1.929687,-1.583984 0.563962,-0.660634 1.004866,-1.400429 1.324219,-2.214844 0.340035,-0.841995 0.511719,-1.717444 0.511719,-2.625 0,-0.817943 -0.120987,-1.581333 -0.367188,-2.287109 -0.259436,-0.743718 -0.690326,-1.336106 -1.302734,-1.773438 -0.63709,-0.473268 -1.46714,-0.685546 -2.44336,-0.685546 z m 64.341793,0.1875 -4.76171,0.458984 -0.0801,0.349609 c -0.0452,0.195909 -0.11626,0.499689 -0.20703,0.908203 l -0.002,0.0078 v 0.0078 c -0.0756,0.393297 -0.18093,0.959717 -0.3164,1.697266 -0.13534,0.736801 -0.31612,1.705949 -0.54297,2.916016 -0.10509,0.600488 -0.22631,1.26937 -0.36328,2.015625 -0.12048,0.737968 -0.24108,1.48275 -0.36133,2.234375 -0.12083,0.740119 -0.22555,1.428381 -0.31641,2.064453 l -0.002,0.0059 v 0.0059 c -0.0754,0.633065 -0.13455,1.145452 -0.17969,1.537109 l 0.0195,-0.09766 c -0.0343,0.10608 -0.0469,0.226406 -0.0469,0.335937 v 0.179688 c 0,0.720977 0.182,1.35342 0.58008,1.865234 0.36862,0.473942 0.82731,0.826962 1.375,1.056642 0.52046,0.2183 1.04322,0.33398 1.57031,0.33398 0.7621,0 1.54448,-0.15794 2.3418,-0.46093 0.85155,-0.31726 1.61672,-0.854458 2.29882,-1.601567 0.70013,-0.78346 1.19803,-1.84048 1.51368,-3.134766 0.10658,-0.456773 0.21964,-1.002409 0.33984,-1.632812 l 0.002,-0.01172 c 0.13478,-0.62893 0.27801,-1.296287 0.42774,-2 0.15109,-0.710128 0.28712,-1.411919 0.4082,-2.107422 l 0.002,-0.0098 c 0.13474,-0.688733 0.2556,-1.31018 0.36133,-1.869141 l 0.9043,-4.988281 -4.46289,0.292969 -0.0664,0.388671 c -0.11966,0.703025 -0.24842,1.398478 -0.38476,2.095704 -0.1203,0.676696 -0.24153,1.346915 -0.36133,2.005859 -0.18032,0.9617 -0.34435,1.808706 -0.4961,2.552734 -0.13494,0.734672 -0.26981,1.430277 -0.40625,2.097657 -0.11944,0.642039 -0.25283,1.308354 -0.40234,1.996093 -0.0468,0.188493 -0.10152,0.431256 -0.16016,0.72461 -0.055,0.261365 -0.1293,0.525095 -0.22656,0.789062 -0.0881,0.239105 -0.19762,0.427258 -0.32031,0.572266 -0.065,0.07685 -0.15566,0.117187 -0.25,0.117187 -0.005,0 -0.0294,-0.01171 -0.0527,-0.03516 -0.0453,-0.06716 -0.0801,-0.158036 -0.0801,-0.300781 0,-0.269241 0.0275,-0.572885 0.084,-0.91211 0.0729,-0.363552 0.13642,-0.658932 0.19336,-0.886718 l 0.006,-0.01758 0.002,-0.01758 c 0.0428,-0.242737 0.10832,-0.545369 0.19727,-0.916015 l 0.002,-0.0078 1.04102,-5 c 0.15051,-0.737499 0.30849,-1.512247 0.47265,-2.318359 0.18078,-0.828579 0.3686,-1.702066 0.56446,-2.621094 z M 83.527344,86.8125 c 0.01638,0.0172 0.02997,0.02094 0.04687,0.04102 l 0.0059,0.0059 0.0039,0.0059 c 0.147335,0.164665 0.257813,0.451115 0.257813,0.929688 0,0.619439 -0.104287,1.183726 -0.304688,1.691406 -0.197055,0.499205 -0.440453,0.89497 -0.71875,1.210938 0.108645,-0.566982 0.224375,-1.156591 0.322266,-1.681641 0.129319,-0.693624 0.257711,-1.446331 0.386719,-2.203125 z m 40.066406,0.251953 c 0.17773,0.01242 0.36668,0.03752 0.57813,0.08789 0.26079,0.06208 0.46832,0.156722 0.63281,0.277343 0.0864,0.0634 0.13281,0.152755 0.13281,0.275391 0,0.001 -0.0121,0.09141 -0.19922,0.226563 l -0.006,0.0059 -0.006,0.0039 c -0.20244,0.15481 -0.48877,0.304023 -0.8789,0.44336 -0.17215,0.06148 -0.35032,0.114977 -0.53125,0.166015 0.0228,-0.116255 0.0334,-0.189286 0.0605,-0.320312 0.0669,-0.334376 0.14226,-0.752012 0.2168,-1.166016 z m 13.10547,1.320313 c 0.17679,0 0.26543,0.06614 0.29492,0.107421 0.0998,0.139675 0.16989,0.314113 0.20508,0.53711 0.0414,0.248479 0.0625,0.476408 0.0625,0.685547 0,0.571111 -0.0835,1.220256 -0.25781,1.960937 -0.17134,0.728171 -0.42861,1.429994 -0.76954,2.097656 -0.33504,0.642186 -0.74143,1.163073 -1.21875,1.572266 -0.41812,0.368933 -0.90103,0.55042 -1.45312,0.550781 -0.19365,0 -0.35627,-0.08087 -0.49023,-0.277343 -0.18255,-0.282482 -0.25196,-0.518827 -0.25196,-0.712891 0,-0.570605 0.0824,-1.214678 0.25586,-1.9375 0.17139,-0.714122 0.43762,-1.44789 0.79883,-2.199219 0.35167,-0.717418 0.78108,-1.294907 1.28906,-1.748047 0.47161,-0.433369 0.98132,-0.636718 1.53516,-0.636718 z M 122.58594,92.5 c 0.22666,0.0063 0.47002,0.04417 0.73633,0.128906 l 0.0137,0.0039 0.0117,0.0039 c 0.2776,0.07242 0.50093,0.190766 0.67578,0.34375 0.10664,0.09331 0.1914,0.260169 0.1914,0.482422 0,0.264575 -0.0793,0.477982 -0.22461,0.652343 -0.15915,0.193256 -0.36854,0.360783 -0.64062,0.498047 -0.2954,0.133587 -0.60393,0.233693 -0.92578,0.300781 -0.10245,0.02134 -0.18073,0.0275 -0.27735,0.04492 0.0621,-0.358788 0.11808,-0.710136 0.19141,-1.085937 0.0938,-0.480625 0.17208,-0.927696 0.24805,-1.373047 z"
         id="text32-0"
         style="font-size:22.5778px;line-height:1.25;font-family:Bangers;-inkscape-font-specification:Bangers;letter-spacing:1.46315px;word-spacing:0px;fill:#ebede9;fill-opacity:1;stroke-width:0.264583"
         aria-label="PLOYBOUT"
         sodipodi:nodetypes="cccscccscsscccscscsccccssccsccccssccccsccccccscscccccccccccsccccccccccccscccsccccsccssscsssccsscscssssccscscccsscsscsscssssscssccscccccccsscssccssccsssssscccccsccccccccscsssccccccccccsccccs"
         inkscape:path-effect="#path-effect15"
         inkscape:original-d="m 76.845496,100.0548 c 0.451556,-2.032002 0.880534,-4.018852 1.286935,-5.960542 0.16557,-0.78269 0.33114,-1.61807 0.496711,-2.50612 0.180623,-0.90312 0.361245,-1.81375 0.541867,-2.73192 0.180623,-0.91816 0.346193,-1.78364 0.496712,-2.59645 0.150519,-0.82785 0.270934,-1.55034 0.361245,-2.16746 0.602075,-0.18063 1.249305,-0.3462 1.941691,-0.49672 0.707437,-0.15051 1.339616,-0.22577 1.896535,-0.22577 0.903112,0 1.618076,0.19567 2.144891,0.58702 0.526815,0.3763 0.903112,0.88806 1.12889,1.53529 0.225778,0.64723 0.338667,1.35467 0.338667,2.12231 0,0.84291 -0.158045,1.65571 -0.474134,2.43841 -0.301037,0.76764 -0.714964,1.46003 -1.241779,2.07715 -0.511763,0.61713 -1.106312,1.10631 -1.783646,1.46756 -0.662282,0.36124 -1.354668,0.54186 -2.077158,0.54186 h -0.248355 c -0.120415,0.51177 -0.233305,1.06869 -0.338668,1.67076 -0.105363,0.60207 -0.195674,1.15899 -0.270933,1.67076 -0.06021,0.30103 -0.112888,0.60207 -0.158045,0.90311 -0.04515,0.30103 -0.09031,0.60207 -0.135467,0.90311 z m 5.260628,-8.286042 c 0.346193,-0.0903 0.692385,-0.31609 1.038578,-0.67734 0.346193,-0.37629 0.632179,-0.85043 0.857957,-1.4224 0.225778,-0.57197 0.338667,-1.19662 0.338667,-1.87395 0,-0.55692 -0.127941,-0.97838 -0.383823,-1.26436 -0.24083,-0.28599 -0.511764,-0.42898 -0.812801,-0.42898 -0.16557,0.99342 -0.33114,1.93416 -0.496711,2.82223 -0.165571,0.88806 -0.346193,1.83632 -0.541867,2.8448 z m 5.098169,8.308622 c 0.165571,-1.189092 0.338667,-2.385722 0.51929,-3.589872 0.195674,-1.20415 0.391348,-2.36314 0.587022,-3.47698 0.210727,-1.12888 0.406401,-2.14488 0.587023,-3.048 0.195675,-0.97837 0.391349,-1.97179 0.587023,-2.98027 0.195674,-1.00847 0.398874,-2.02447 0.609601,-3.048 l 3.951115,-0.51929 -1.174046,5.10258 c -0.210726,0.88806 -0.428978,1.84386 -0.654756,2.86739 -0.210726,1.00847 -0.4064,1.98684 -0.587023,2.9351 -0.180623,0.94827 -0.323615,1.79117 -0.428978,2.52872 0.376297,-0.0301 0.775171,-0.0452 1.196623,-0.0452 0.436505,-0.0151 0.820327,-0.0226 1.151468,-0.0226 0.01505,0.34619 0.04516,0.71497 0.09031,1.10632 0.04515,0.37629 0.09031,0.70743 0.135467,0.99342 0.06021,0.27093 0.09031,0.42145 0.09031,0.45155 H 93.68412 c -0.04515,0 -0.09784,-0.008 -0.158045,-0.0226 h -0.361244 c -0.587023,0 -1.24178,0.0301 -1.964269,0.0903 -0.707438,0.0451 -1.414876,0.12792 -2.122313,0.24835 -0.692386,0.10537 -1.317039,0.24836 -1.873958,0.428982 z m 21.530417,-0.383782 1.03858,-4.53814 c 0,-1.06868 -0.0301,-2.15994 -0.0903,-3.27377 -0.0451,-1.12889 -0.10534,-2.25026 -0.18062,-3.3641 -0.0602,-1.11383 -0.12041,-2.00942 -0.18062,-2.68675 l -0.0677,-1.016 3.68018,-1.39983 v 2.75449 c 0,0.87301 -0.008,1.66323 -0.0226,2.37067 v 1.8288 c 0.19567,-0.51176 0.42898,-1.14394 0.69991,-1.89653 0.28599,-0.75259 0.54939,-1.48261 0.79022,-2.19005 0.15052,-0.42145 0.29351,-0.8429 0.42898,-1.26435 0.15052,-0.43651 0.30104,-0.88806 0.45155,-1.35467 l 3.49956,0.79022 c -0.64723,1.27941 -1.2794,2.56634 -1.89653,3.8608 -0.36125,0.79775 -0.76012,1.64066 -1.19663,2.52872 -0.42145,0.87301 -0.82032,1.69333 -1.19662,2.46098 -0.36125,0.75258 -0.64723,1.35466 -0.85795,1.80622 -0.0753,0.39135 -0.1731,0.82032 -0.29352,1.28693 -0.10536,0.46661 -0.21072,0.91064 -0.31609,1.33209 -0.0602,0.24083 -0.12793,0.48919 -0.2032,0.74507 -0.0753,0.24083 -0.15051,0.48918 -0.22577,0.74507 z m 9.92985,0.428982 c -0.55692,0 -1.07621,-0.0452 -1.55787,-0.135472 0.72249,-2.63407 1.29446,-5.2832 1.71591,-7.94738 0.43652,-2.67923 0.85044,-5.37351 1.24179,-8.08285 0.78269,-0.16557 1.59549,-0.30856 2.4384,-0.42898 0.84291,-0.13547 1.71592,-0.2032 2.61903,-0.2032 0.49671,0 1.02352,0.0903 1.58044,0.27093 0.55692,0.16557 1.02353,0.47414 1.39983,0.92569 0.39135,0.43651 0.58702,1.06116 0.58702,1.87396 0,0.75259 -0.15804,1.44498 -0.47413,2.07716 -0.31609,0.63218 -0.71497,1.17404 -1.19663,1.6256 -0.48166,0.45156 -0.97837,0.77517 -1.49013,0.97085 0.21073,0.10536 0.45908,0.29351 0.74506,0.56444 0.28599,0.27093 0.53434,0.63218 0.74507,1.08373 0.21073,0.45156 0.31609,1.00095 0.31609,1.64818 0,0.90311 -0.27093,1.72344 -0.8128,2.46098 -0.52681,0.72249 -1.23425,1.32456 -2.12231,1.80622 -0.85796,0.48166 -1.78365,0.85043 -2.77707,1.10632 -0.99343,0.25588 -1.97932,0.383822 -2.9577,0.383822 z m 4.01885,-10.905072 c 0.46661,-0.0903 0.91064,-0.21073 1.33209,-0.36125 0.42145,-0.15052 0.76012,-0.32361 1.01601,-0.51929 0.27093,-0.19567 0.4064,-0.4064 0.4064,-0.63218 0,-0.28598 -0.11289,-0.51176 -0.33867,-0.67733 -0.22578,-0.16557 -0.49671,-0.28599 -0.8128,-0.36124 -0.31609,-0.0753 -0.60961,-0.11293 -0.88054,-0.11293 h -0.22577 c -0.10537,0.60207 -0.20321,1.12889 -0.29352,1.58044 -0.0903,0.43651 -0.15804,0.79775 -0.2032,1.08374 z m -1.15146,6.34435 c 0.30103,-0.0301 0.63217,-0.0828 0.99342,-0.15804 0.36125,-0.0753 0.70744,-0.18815 1.03858,-0.33867 0.33114,-0.16557 0.60207,-0.3763 0.8128,-0.63218 0.22578,-0.27093 0.33867,-0.59454 0.33867,-0.97084 0,-0.36124 -0.12042,-0.64723 -0.36125,-0.85796 -0.24083,-0.21072 -0.53434,-0.36124 -0.88053,-0.45155 -0.33114,-0.10536 -0.64723,-0.15804 -0.94827,-0.15804 h -0.18062 c -0.0753,0 -0.13547,0.007 -0.18063,0.0226 -0.0903,0.55691 -0.19567,1.14394 -0.31608,1.76106 -0.12042,0.61713 -0.22578,1.21168 -0.31609,1.78364 z m 10.81034,4.560722 c -0.99342,0 -1.80622,-0.383822 -2.4384,-1.151472 -0.63218,-0.76765 -0.94827,-1.92664 -0.94827,-3.47698 0,-0.85796 0.10536,-1.76107 0.31609,-2.70933 0.21073,-0.94827 0.50424,-1.88148 0.88054,-2.79965 0.37629,-0.91816 0.8128,-1.76859 1.30951,-2.55129 0.79775,-1.26436 1.71591,-2.29541 2.75449,-3.09316 1.03858,-0.79775 2.12984,-1.19662 3.27378,-1.19662 0.90311,0 1.5955,0.2333 2.07716,0.69991 0.49671,0.45156 0.84291,1.03858 1.03858,1.76107 0.19567,0.70744 0.29351,1.44498 0.29351,2.21262 0,1.79118 -0.27846,3.46193 -0.83538,5.01227 -0.54187,1.53529 -1.2493,2.83727 -2.12231,3.90596 -0.87301,1.09879 -1.80622,1.94169 -2.79965,2.52871 -0.97837,0.57197 -1.91158,0.857962 -2.79965,0.857962 z m 1.21921,-3.725342 c 0.67733,0 1.27188,-0.22578 1.78364,-0.67733 0.52682,-0.45156 0.97085,-1.02353 1.33209,-1.71592 0.36125,-0.70743 0.63218,-1.44497 0.8128,-2.21261 0.18063,-0.76765 0.27094,-1.46004 0.27094,-2.07716 0,-0.24083 -0.0226,-0.49671 -0.0677,-0.76765 -0.0451,-0.28598 -0.14297,-0.53434 -0.29351,-0.74506 -0.15052,-0.21073 -0.38382,-0.31609 -0.69991,-0.31609 -0.69239,0 -1.31704,0.25588 -1.87396,0.76764 -0.55692,0.49671 -1.02353,1.12889 -1.39982,1.89654 -0.3763,0.78269 -0.65476,1.55034 -0.83538,2.30293 -0.18062,0.7526 -0.27093,1.43745 -0.27093,2.05458 0,0.31609 0.11289,0.64723 0.33866,0.99342 0.22578,0.33114 0.52682,0.49671 0.90312,0.49671 z m 11.01356,4.041432 c -0.45156,0 -0.91064,-0.0978 -1.37725,-0.29351 -0.46661,-0.195682 -0.85796,-0.496722 -1.17405,-0.903122 -0.31609,-0.4064 -0.47413,-0.92569 -0.47413,-1.55786 v -0.18063 c 0,-0.0753 0.008,-0.13547 0.0226,-0.18062 0.0451,-0.39135 0.10534,-0.90311 0.18062,-1.53529 0.0903,-0.63218 0.19568,-1.31704 0.31609,-2.05458 0.12041,-0.75259 0.24083,-1.49766 0.36124,-2.2352 0.13547,-0.73754 0.25588,-1.40734 0.36125,-2.00942 0.22578,-1.20415 0.4064,-2.17499 0.54187,-2.91254 0.13547,-0.73754 0.24083,-1.30198 0.31609,-1.69333 0.0903,-0.4064 0.15804,-0.70744 0.2032,-0.90311 l 3.72533,-0.36125 c -0.19567,0.91817 -0.38382,1.79117 -0.56444,2.61903 -0.16557,0.8128 -0.32362,1.58797 -0.47414,2.32551 l -1.03857,4.98969 c -0.0903,0.3763 -0.15805,0.69238 -0.2032,0.94827 -0.0602,0.24083 -0.12793,0.54939 -0.2032,0.92569 -0.0602,0.36124 -0.0903,0.69238 -0.0903,0.99342 0,0.24083 0.0602,0.44403 0.18063,0.6096 0.12041,0.15052 0.27093,0.22578 0.45155,0.22578 0.25589,0 0.46661,-0.0978 0.63218,-0.29351 0.16557,-0.19568 0.30104,-0.43651 0.4064,-0.72249 0.10537,-0.28599 0.18815,-0.57197 0.24836,-0.85796 0.0602,-0.30104 0.11288,-0.54187 0.15804,-0.72249 0.15052,-0.69238 0.28599,-1.36219 0.4064,-2.00942 0.13547,-0.66228 0.27093,-1.36219 0.4064,-2.09973 0.15052,-0.73754 0.31609,-1.58798 0.49671,-2.55129 0.12042,-0.66229 0.24084,-1.33209 0.36125,-2.00943 0.13547,-0.69238 0.26341,-1.3923 0.38382,-2.09973 l 3.43183,-0.22578 -0.79023,4.35751 c -0.10536,0.55692 -0.22577,1.18157 -0.36124,1.87396 -0.12041,0.69239 -0.25588,1.3923 -0.4064,2.09974 -0.15052,0.70743 -0.29351,1.37724 -0.42898,2.00941 -0.12041,0.63218 -0.2333,1.17405 -0.33867,1.62561 -0.30103,1.23425 -0.76764,2.2051 -1.39982,2.91253 -0.63218,0.69239 -1.33209,1.18157 -2.09974,1.467562 -0.75259,0.28599 -1.47508,0.42898 -2.16746,0.42898 z"
         inkscape:label="offsetText" />
      <path
         style="fill:#de9e41;fill-opacity:1;stroke-width:0.283764"
         d="m 381.38477,346.06055 c -1.31656,0.008 -2.66333,0.0786 -3.44727,0.20703 -4.26429,0.69875 -8.08079,2.37247 -11.36719,4.98437 -1.7971,1.42827 -4.06874,3.98122 -5.27734,5.93555 -3.88778,6.28657 -4.67615,13.755 -2.17969,20.6543 0.77589,2.14427 2.35633,4.93029 3.81055,6.72265 0.78764,0.9708 2.28047,2.48852 3.26172,3.31446 1.08635,0.9144 2.95258,2.16542 4.20117,2.81836 2.76583,1.44633 5.44476,2.24902 8.88672,2.66601 0.74628,0.0904 4.84923,-0.0209 5.6914,-0.1543 3.6538,-0.57872 6.83899,-1.80655 9.79688,-3.7832 5.42877,-3.62787 9.19505,-9.42541 10.23828,-15.76172 0.58392,-3.54665 0.34739,-7.36311 -0.66797,-10.71289 -1.87233,-6.17698 -6.18991,-11.36495 -11.87109,-14.26367 -2.52357,-1.28761 -4.76223,-2.00719 -7.66211,-2.46094 -0.76287,-0.11935 -2.0975,-0.17406 -3.41406,-0.16601 z"
         id="path12"
         inkscape:path-effect="#path-effect14"
         inkscape:original-d="m 379.31756,392.9877 c -3.39918,-0.41181 -6.03706,-1.20235 -8.75549,-2.6239 -1.22925,-0.64282 -3.06331,-1.87397 -4.13314,-2.77447 -0.96627,-0.81333 -2.43752,-2.30756 -3.2122,-3.26238 -1.43621,-1.77016 -2.98188,-4.49831 -3.74775,-6.6149 -2.45567,-6.78657 -1.67911,-14.13989 2.14658,-20.32607 1.19177,-1.92711 3.41675,-4.4311 5.18877,-5.83943 3.23319,-2.56962 6.99316,-4.2174 11.19424,-4.90579 1.52097,-0.24923 5.2655,-0.2721 6.74138,-0.0412 2.86134,0.44772 5.06329,1.15443 7.54965,2.42306 5.58908,2.85173 9.83721,7.95725 11.68026,14.03763 0.99809,3.29279 1.23261,7.05161 0.6578,10.5429 -1.02609,6.23221 -4.7331,11.93719 -10.07715,15.50844 -2.90831,1.94352 -6.04409,3.15471 -9.64371,3.72485 -0.84218,0.1334 -4.84296,0.24165 -5.58924,0.15123 z"
         transform="matrix(0.26458333,0,0,0.26458333,0.50029299,-6.0330204)" />
      <path
         id="path8"
         style="fill:#e8c170;fill-opacity:1;stroke-width:1.30083"
         d="m 103.86841,86.249966 c 0.17671,1.067022 -0.45559,3.011489 -2.67197,3.732839 -2.792485,0.908847 -5.497158,-0.561279 -5.011575,-1.809809 0.404557,-1.040195 2.528098,-2.581191 4.857075,-2.673382 2.32899,-0.09219 2.69673,-0.0331 2.82647,0.750352 z"
         sodipodi:nodetypes="sssss" />
      <path
         style="fill:#e8c170;fill-opacity:1;stroke-width:0.899999"
         d="m 95.75029,94.24407 c 1.980729,1.56806 4.94464,3.26179 7.9375,2.91041 0.0289,0.21219 -0.88407,0.796007 -1.65372,0.793466 0,0 -2.579614,2.84e-4 -2.844197,2.84e-4 -0.264583,0 -3.175001,-2.38125 -3.175001,-2.38125"
         id="path14"
         sodipodi:nodetypes="cccsc" />
      <path
         d="m 76.845493,100.0548 c 0.451556,-2.032 0.880534,-4.01885 1.286935,-5.96054 0.16557,-0.782694 0.33114,-1.618071 0.496711,-2.506131 0.180623,-0.903112 0.361245,-1.81375 0.541867,-2.731914 0.180623,-0.918164 0.346193,-1.783646 0.496712,-2.596447 0.150519,-0.827853 0.270934,-1.550342 0.361245,-2.167469 0.602075,-0.180622 1.249305,-0.346192 1.941691,-0.496711 0.707437,-0.150519 1.339616,-0.225778 1.896535,-0.225778 0.903112,0 1.618076,0.195674 2.144891,0.587022 0.526815,0.376297 0.903112,0.88806 1.12889,1.535291 0.225778,0.64723 0.338667,1.354668 0.338667,2.122313 0,0.842905 -0.158045,1.655706 -0.474134,2.438403 -0.301037,0.767645 -0.714964,1.46003 -1.241779,2.077157 -0.511763,0.617127 -1.106312,1.106312 -1.783646,1.467557 -0.662282,0.361245 -1.354668,0.541867 -2.077158,0.541867 h -0.248355 c -0.120415,0.51177 -0.233305,1.06869 -0.338668,1.67076 -0.105363,0.60207 -0.195674,1.15899 -0.270933,1.67076 -0.06021,0.30103 -0.112888,0.60207 -0.158045,0.90311 -0.04515,0.30103 -0.09031,0.60207 -0.135467,0.90311 z m 5.260628,-8.286048 c 0.346193,-0.09031 0.692385,-0.31609 1.038578,-0.677335 0.346193,-0.376297 0.632179,-0.85043 0.857957,-1.422401 0.225778,-0.571971 0.338667,-1.196623 0.338667,-1.873957 0,-0.556919 -0.127941,-0.978372 -0.383823,-1.264357 -0.24083,-0.285985 -0.511764,-0.428978 -0.812801,-0.428978 -0.16557,0.993423 -0.33114,1.934164 -0.496711,2.822225 -0.165571,0.88806 -0.346193,1.836328 -0.541867,2.844803 z m 5.098169,8.308628 c 0.165571,-1.18909 0.338667,-2.38572 0.51929,-3.58987 0.195674,-1.20415 0.391348,-2.36314 0.587022,-3.476979 0.210727,-1.128891 0.406401,-2.144892 0.587023,-3.048004 0.195675,-0.978371 0.391349,-1.971794 0.587023,-2.980269 0.195674,-1.008475 0.398874,-2.024476 0.609601,-3.048003 l 3.951115,-0.51929 -1.174046,5.102583 c -0.210726,0.88806 -0.428978,1.843854 -0.654756,2.867381 -0.210726,1.008475 -0.4064,1.986846 -0.587023,2.935111 -0.180623,0.94827 -0.323615,1.79117 -0.428978,2.52872 0.376297,-0.0301 0.775171,-0.0452 1.196623,-0.0452 0.436505,-0.0151 0.820327,-0.0226 1.151468,-0.0226 0.01505,0.34619 0.04516,0.71497 0.09031,1.10632 0.04515,0.37629 0.09031,0.70743 0.135467,0.99342 0.06021,0.27093 0.09031,0.42145 0.09031,0.45155 h -0.180622 c -0.04515,0 -0.09784,-0.008 -0.158045,-0.0226 h -0.361244 c -0.587023,0 -1.24178,0.0301 -1.964269,0.0903 -0.707438,0.0451 -1.414876,0.12792 -2.122313,0.24835 -0.692386,0.10537 -1.317039,0.24836 -1.873958,0.42898 z m 21.53042,-0.38378 1.03858,-4.53814 c 0,-1.06868 -0.0301,-2.159941 -0.0903,-3.273779 -0.0451,-1.128891 -0.10534,-2.250255 -0.18062,-3.364093 -0.0602,-1.113838 -0.12041,-2.009424 -0.18062,-2.686758 l -0.0677,-1.016001 3.68018,-1.399824 v 2.754492 c 0,0.873008 -0.008,1.663231 -0.0226,2.370669 v 1.828802 c 0.19567,-0.511763 0.42898,-1.143942 0.69991,-1.896535 0.28599,-0.752593 0.54939,-1.482609 0.79022,-2.190047 0.15052,-0.421452 0.29351,-0.842904 0.42898,-1.264357 0.15052,-0.436504 0.30104,-0.88806 0.45155,-1.354668 l 3.49956,0.790223 c -0.64723,1.279409 -1.2794,2.566343 -1.89653,3.860804 -0.36125,0.797749 -0.76012,1.640653 -1.19663,2.528714 -0.42145,0.873008 -0.82032,1.693335 -1.19662,2.46098 -0.36125,0.752588 -0.64723,1.354668 -0.85795,1.806228 -0.0753,0.39135 -0.1731,0.82032 -0.29352,1.28693 -0.10536,0.46661 -0.21072,0.91064 -0.31609,1.33209 -0.0602,0.24083 -0.12793,0.48919 -0.2032,0.74507 -0.0753,0.24083 -0.15051,0.48918 -0.22577,0.74507 z m 9.92985,0.42898 c -0.55692,0 -1.07621,-0.0452 -1.55787,-0.13547 0.72249,-2.63407 1.29446,-5.2832 1.71591,-7.947385 0.43651,-2.679232 0.85043,-5.373516 1.24178,-8.082853 0.78269,-0.16557 1.59549,-0.308563 2.4384,-0.428978 0.84291,-0.135467 1.71592,-0.2032 2.61903,-0.2032 0.49671,0 1.02352,0.09031 1.58044,0.270934 0.55692,0.16557 1.02353,0.474133 1.39983,0.925689 0.39135,0.436505 0.58702,1.061157 0.58702,1.873958 0,0.752593 -0.15804,1.444979 -0.47413,2.077158 -0.31609,0.632178 -0.71497,1.174045 -1.19663,1.625601 -0.48166,0.451556 -0.97837,0.775171 -1.49013,0.970846 0.21073,0.105363 0.45908,0.293511 0.74506,0.564445 0.28599,0.270933 0.53434,0.632178 0.74507,1.083734 0.21073,0.451556 0.31609,1.00095 0.31609,1.648181 0,0.90311 -0.27093,1.72344 -0.8128,2.46098 -0.52681,0.72249 -1.23425,1.32456 -2.12231,1.80622 -0.85796,0.48166 -1.78365,0.85043 -2.77707,1.10632 -0.99343,0.25588 -1.97932,0.38382 -2.95769,0.38382 z M 122.6834,89.2175 c 0.46661,-0.09031 0.91064,-0.210726 1.33209,-0.361245 0.42145,-0.150519 0.76012,-0.323615 1.01601,-0.519289 0.27093,-0.195675 0.4064,-0.406401 0.4064,-0.632179 0,-0.285985 -0.11289,-0.511763 -0.33867,-0.677334 -0.22578,-0.16557 -0.49671,-0.285985 -0.8128,-0.361244 -0.31609,-0.07529 -0.60961,-0.112929 -0.88054,-0.112929 h -0.22577 c -0.10537,0.602075 -0.20321,1.12889 -0.29352,1.580446 -0.0903,0.436504 -0.15804,0.797749 -0.2032,1.083734 z m -1.15146,6.34436 c 0.30103,-0.0301 0.63217,-0.0828 0.99342,-0.15804 0.36125,-0.0753 0.70744,-0.18815 1.03858,-0.33867 0.33114,-0.16557 0.60207,-0.3763 0.8128,-0.63218 0.22578,-0.27093 0.33867,-0.594548 0.33867,-0.970843 0,-0.361245 -0.12042,-0.647231 -0.36125,-0.857957 -0.24083,-0.210726 -0.53434,-0.361245 -0.88053,-0.451556 -0.33114,-0.105363 -0.64723,-0.158044 -0.94827,-0.158044 h -0.18062 c -0.0753,0 -0.13547,0.0075 -0.18063,0.02258 -0.0903,0.556919 -0.19567,1.143942 -0.31608,1.761069 -0.12042,0.617131 -0.22578,1.211681 -0.31609,1.783641 z m 10.81034,4.56072 c -0.99342,0 -1.80622,-0.38382 -2.4384,-1.15147 -0.63218,-0.76765 -0.94827,-1.92664 -0.94827,-3.47698 0,-0.85796 0.10536,-1.761072 0.31609,-2.709337 0.21073,-0.948268 0.50424,-1.881484 0.88054,-2.799648 0.37629,-0.918164 0.8128,-1.768594 1.30951,-2.551291 0.79775,-1.264357 1.71591,-2.29541 2.75449,-3.093159 1.03858,-0.797749 2.12984,-1.196623 3.27378,-1.196623 0.90311,0 1.5955,0.233304 2.07716,0.699911 0.49671,0.451556 0.84291,1.038579 1.03858,1.761069 0.19567,0.707438 0.29351,1.444979 0.29351,2.212624 0,1.791173 -0.27846,3.46193 -0.83538,5.012272 -0.54187,1.535292 -1.2493,2.837272 -2.12231,3.905962 -0.87301,1.09879 -1.80622,1.94169 -2.79965,2.52871 -0.97837,0.57197 -1.91158,0.85796 -2.79965,0.85796 z m 1.21921,-3.72534 c 0.67733,0 1.27188,-0.22578 1.78364,-0.67733 0.52682,-0.45156 0.97085,-1.02353 1.33209,-1.71592 0.36125,-0.707435 0.63218,-1.444976 0.8128,-2.212621 0.18063,-0.767645 0.27094,-1.460031 0.27094,-2.077157 0,-0.24083 -0.0226,-0.496712 -0.0677,-0.767646 -0.0451,-0.285985 -0.14297,-0.534341 -0.29351,-0.745067 -0.15052,-0.210726 -0.38382,-0.316089 -0.69991,-0.316089 -0.69239,0 -1.31704,0.255882 -1.87396,0.767645 -0.55692,0.496711 -1.02353,1.12889 -1.39982,1.896535 -0.3763,0.782697 -0.65476,1.550343 -0.83538,2.302936 -0.18062,0.752596 -0.27093,1.437454 -0.27093,2.054584 0,0.31609 0.11289,0.64723 0.33866,0.99342 0.22578,0.33114 0.52682,0.49671 0.90312,0.49671 z m 11.01356,4.04143 c -0.45156,0 -0.91064,-0.0978 -1.37725,-0.29351 -0.46661,-0.19568 -0.85796,-0.49672 -1.17405,-0.90312 -0.31609,-0.4064 -0.47413,-0.92569 -0.47413,-1.55786 v -0.18063 c 0,-0.0753 0.008,-0.13547 0.0226,-0.18062 0.0451,-0.39135 0.10534,-0.90311 0.18062,-1.53529 0.0903,-0.63218 0.19568,-1.31704 0.31609,-2.05458 0.12041,-0.752593 0.24083,-1.497661 0.36124,-2.235202 0.13547,-0.737541 0.25588,-1.407349 0.36125,-2.009424 0.22578,-1.204149 0.4064,-2.174995 0.54187,-2.912537 0.13547,-0.737541 0.24083,-1.301986 0.31609,-1.693335 0.0903,-0.4064 0.15804,-0.707437 0.2032,-0.903112 l 3.72533,-0.361245 c -0.19567,0.918164 -0.38382,1.791172 -0.56444,2.619025 -0.16557,0.812801 -0.32362,1.587973 -0.47414,2.325514 l -1.03857,4.989694 c -0.0903,0.376295 -0.15805,0.692382 -0.2032,0.948272 -0.0602,0.24083 -0.12793,0.54939 -0.2032,0.92569 -0.0602,0.36124 -0.0903,0.69238 -0.0903,0.99342 0,0.24083 0.0602,0.44403 0.18063,0.6096 0.12041,0.15052 0.27093,0.22578 0.45155,0.22578 0.25589,0 0.46661,-0.0978 0.63218,-0.29351 0.16557,-0.19568 0.30104,-0.43651 0.4064,-0.72249 0.10537,-0.28599 0.18815,-0.57197 0.24836,-0.85796 0.0602,-0.30104 0.11288,-0.54187 0.15804,-0.72249 0.15052,-0.692386 0.28599,-1.362194 0.4064,-2.009424 0.13547,-0.662282 0.27093,-1.362194 0.4064,-2.099736 0.15052,-0.737541 0.31609,-1.587972 0.49671,-2.551291 0.12042,-0.662282 0.24084,-1.33209 0.36125,-2.009424 0.13547,-0.692386 0.26341,-1.392298 0.38382,-2.099736 l 3.43183,-0.225778 -0.79023,4.357516 c -0.10536,0.556919 -0.22577,1.181571 -0.36124,1.873957 -0.12041,0.692386 -0.25588,1.392298 -0.4064,2.099736 -0.15052,0.707437 -0.29351,1.377244 -0.42898,2.00942 -0.12041,0.63218 -0.2333,1.17405 -0.33867,1.62561 -0.30103,1.23425 -0.76764,2.2051 -1.39982,2.91253 -0.63218,0.69239 -1.33209,1.18157 -2.09974,1.46756 -0.75259,0.28599 -1.47508,0.42898 -2.16746,0.42898 z"
         id="text32"
         style="font-size:22.5778px;line-height:1.25;font-family:Bangers;-inkscape-font-specification:Bangers;letter-spacing:1.46315px;word-spacing:0px;stroke-width:0.264583"
         aria-label="PLOYBOUT"
         sodipodi:nodetypes="cccscccscsscccscscsccccssccsccccssccccsccccccscscccccccccccsccccccccccccscccsccccsccssscsssccsscscssssccscscccsscsscsscssssscssccscccccccsscssccssccsssssscccccsccccccccscsssccccccccccsccccs"
         inkscape:label="Titre" />
      <path
         id="path1"
         style="fill:#ebede9;fill-opacity:1;stroke:none;stroke-width:0.2;stroke-linecap:square;stroke-linejoin:bevel;stroke-miterlimit:0;stroke-dasharray:none;stroke-opacity:1;paint-order:stroke markers fill"
         d="m 101.44193,85.103536 c -3.710162,0 -6.716897,2.989597 -6.716897,6.687447 0,3.697847 3.00654,6.689517 6.716897,6.689517 3.71036,0 6.71484,-2.99186 6.71484,-6.689517 0,-3.697653 -3.00468,-6.687447 -6.71484,-6.687447 z m -0.001,0.499194 a 6.2156949,6.1885905 0 0 1 6.21564,6.18877 6.2156949,6.1885905 0 0 1 -6.21564,6.18825 6.2156949,6.1885905 0 0 1 -6.21564,-6.18825 6.2156949,6.1885905 0 0 1 6.21564,-6.18877 z" />
      <g
         id="g14"
         transform="translate(0.50029299,-6.0330204)">
        <path
           id="path7-3-8"
           style="fill:#a8b5b2;fill-opacity:1;stroke:#ebede9;stroke-width:0.2;stroke-dasharray:none;stroke-opacity:1"
           d="m 156.64799,91.650153 c -0.74656,4.560508 -2.38823,8.588547 -4.13794,12.549807 l 1.05758,2.33644 2.23984,-1.24921 c 1.00891,-4.26301 2.01839,-8.52591 4.13794,-12.549807 z" />
        <path
           id="path7-3-8-8"
           style="fill:#c7cfcc;fill-opacity:1;stroke:none;stroke-width:0.483809;stroke-dasharray:none;stroke-opacity:1"
           d="m 156.64799,91.650153 c -0.74656,4.560508 -2.38823,8.588547 -4.13794,12.549807 l 1.05758,2.33644 c 0.15701,-3.95276 3.33028,-8.111397 3.85945,-13.93223 -0.44144,-1.434676 -0.77909,-0.954017 -0.77909,-0.954017 z"
           sodipodi:nodetypes="ccccc" />
        <path
           style="fill:#7a4841;fill-opacity:1;stroke:#ebede9;stroke-width:0.2;stroke-dasharray:none;stroke-opacity:1"
           d="m 157.83396,91.301672 c 0.5217,-2.389065 1.83765,-4.11076 1.74982,-6.704276 0.7263,-0.364311 2.10346,0.07872 2.47308,0.815426 -1.6109,2.007822 -1.54671,4.121349 -2.57419,6.432465 z"
           id="path10-1-7"
           sodipodi:nodetypes="ccccc"
           inkscape:transform-center-x="-0.24971548"
           inkscape:transform-center-y="-0.9988619" />
        <path
           style="fill:#ad7757;fill-opacity:1;stroke-width:0.899999"
           d="m 157.87298,91.309427 c 0.0578,-0.124815 0.0591,-0.329582 0.15267,-0.583102 0.37768,-1.02327 1.47813,-3.985502 1.57978,-4.71333 0.0628,-0.449487 0.0804,-1.356558 0.0804,-1.356558 0.0679,-0.02229 0.28941,-0.111498 0.66546,-0.08592 0.31787,0.02162 0.21277,0.0793 0.016,0.688801 -0.1374,0.425489 -0.26131,0.6881 -0.29442,0.800496 -0.43276,1.105377 -0.94708,2.542922 -1.21366,3.16498 -0.60868,1.170541 -0.81065,1.838821 -0.98623,2.084633 z"
           id="path2"
           sodipodi:nodetypes="csscssccc" />
        <path
           style="fill:#602c2c;fill-opacity:1;stroke-width:0.899999"
           d="m 159.29978,91.766891 c 0.031,-0.134008 0.28392,-0.26412 0.37405,-0.518883 0.0951,-0.268865 0.61122,-2.05703 0.79709,-2.752133 0.24793,-0.927169 0.58749,-1.677405 0.74435,-1.949911 0.22248,-0.472589 0.32822,-0.560763 0.35806,-0.646512 -0.44793,0.114557 -0.56045,0.230915 -0.69869,0.389624 -0.39776,1.138214 -0.81612,2.611161 -0.98762,3.265845 -0.2382,1.297658 -0.57491,1.910142 -0.58724,2.21197 z"
           id="path2-2"
           sodipodi:nodetypes="cssccccc" />
        <path
           style="fill:#7a4841;fill-opacity:1;stroke:#ebede9;stroke-width:0.2;stroke-dasharray:none;stroke-opacity:1"
           d="m 154.78125,89.663688 7.84626,2.587081 c 0.77292,0.878516 1.29326,1.44606 -0.40781,1.236832 -4.24614,-0.522267 -4.68078,-0.698974 -7.84612,-2.587033 -1.47207,-0.878056 -0.73622,-0.990378 0.40767,-1.23688 z"
           id="path11-8"
           sodipodi:nodetypes="ccssc" />
        <path
           style="fill:#ad7757;fill-opacity:1;stroke-width:0.551293"
           d="m 153.72291,90.22292 c 0.58522,0.144737 1.76617,0.311534 2.82938,0.536611 0.99359,0.21034 1.86919,0.388472 2.44175,0.400866 -0.20515,-0.06977 -3.98022,-1.368993 -4.23556,-1.389841 -0.14943,0.01679 -0.48481,0.102633 -0.68352,0.15456 -0.37982,0.09926 -0.52327,0.239955 -0.35205,0.297804 z"
           id="path3"
           sodipodi:nodetypes="csccsc"
           transform="translate(-1.1983333e-6)" />
        <path
           style="fill:#602c2c;fill-opacity:1;stroke-width:0.551293"
           d="m 162.91421,92.739708 c -0.65882,0.02336 -0.9382,0.07069 -2.02427,0.03164 -0.94453,-0.03396 -1.95615,-0.08536 -2.52613,-0.02953 0.81685,0.220502 1.28848,0.314137 2.25205,0.454312 1.48624,0.21621 1.97909,0.238439 2.3235,0.241104 0.20523,-0.02949 0.33182,-0.05434 0.31201,-0.156358 -0.0409,-0.210666 -0.18417,-0.353556 -0.33716,-0.541165 z"
           id="path3-3"
           sodipodi:nodetypes="cscscsc" />
      </g>
    </g>
  </g>
</svg>
