{
    "asset" : {
        "generator" : "Khronos glTF Blender I/O v1.8.19",
        "version" : "2.0"
    },
    "scene" : 0,
    "scenes" : [
        {
            "name" : "Scene",
            "nodes" : [
                0
            ]
        }
    ],
    "nodes" : [
        {
            "mesh" : 0,
            "name" : "hair7",
            "scale" : [
                1.01337730884552,
                1,
                1
            ],
            "translation" : [
                0,
                -0.0025555589236319065,
                0.05613335594534874
            ]
        }
    ],
    "materials" : [
        {
            "doubleSided" : true,
            "name" : "Hair.013",
            "pbrMetallicRoughness" : {
                "baseColorFactor" : [
                    0.031062303110957146,
                    0.00800917949527502,
                    0.0023538703098893166,
                    1
                ],
                "metallicFactor" : 0,
                "roughnessFactor" : 0.5
            }
        },
        {
            "doubleSided" : true,
            "name" : "pants.001",
            "pbrMetallicRoughness" : {
                "baseColorFactor" : [
                    0.010021649301052094,
                    0.010021649301052094,
                    0.010021649301052094,
                    1
                ],
                "metallicFactor" : 0
            }
        }
    ],
    "meshes" : [
        {
            "name" : "Sph\u00e8re.029",
            "primitives" : [
                {
                    "attributes" : {
                        "POSITION" : 0,
                        "NORMAL" : 1,
                        "TEXCOORD_0" : 2
                    },
                    "indices" : 3,
                    "material" : 0
                },
                {
                    "attributes" : {
                        "POSITION" : 4,
                        "NORMAL" : 5,
                        "TEXCOORD_0" : 6
                    },
                    "indices" : 7,
                    "material" : 1
                }
            ]
        }
    ],
    "accessors" : [
        {
            "bufferView" : 0,
            "componentType" : 5126,
            "count" : 576,
            "max" : [
                0.6702293157577515,
                3.31949520111084,
                0.6422306895256042
            ],
            "min" : [
                -0.6413204669952393,
                2.2358875274658203,
                -1.092544436454773
            ],
            "type" : "VEC3"
        },
        {
            "bufferView" : 1,
            "componentType" : 5126,
            "count" : 576,
            "type" : "VEC3"
        },
        {
            "bufferView" : 2,
            "componentType" : 5126,
            "count" : 576,
            "type" : "VEC2"
        },
        {
            "bufferView" : 3,
            "componentType" : 5123,
            "count" : 1380,
            "type" : "SCALAR"
        },
        {
            "bufferView" : 4,
            "componentType" : 5126,
            "count" : 24,
            "max" : [
                0.08668142557144165,
                2.741379737854004,
                -0.4840274751186371
            ],
            "min" : [
                -0.08623474836349487,
                2.590881824493408,
                -0.6300250291824341
            ],
            "type" : "VEC3"
        },
        {
            "bufferView" : 5,
            "componentType" : 5126,
            "count" : 24,
            "type" : "VEC3"
        },
        {
            "bufferView" : 6,
            "componentType" : 5126,
            "count" : 24,
            "type" : "VEC2"
        },
        {
            "bufferView" : 7,
            "componentType" : 5123,
            "count" : 72,
            "type" : "SCALAR"
        }
    ],
    "bufferViews" : [
        {
            "buffer" : 0,
            "byteLength" : 6912,
            "byteOffset" : 0
        },
        {
            "buffer" : 0,
            "byteLength" : 6912,
            "byteOffset" : 6912
        },
        {
            "buffer" : 0,
            "byteLength" : 4608,
            "byteOffset" : 13824
        },
        {
            "buffer" : 0,
            "byteLength" : 2760,
            "byteOffset" : 18432
        },
        {
            "buffer" : 0,
            "byteLength" : 288,
            "byteOffset" : 21192
        },
        {
            "buffer" : 0,
            "byteLength" : 288,
            "byteOffset" : 21480
        },
        {
            "buffer" : 0,
            "byteLength" : 192,
            "byteOffset" : 21768
        },
        {
            "buffer" : 0,
            "byteLength" : 144,
            "byteOffset" : 21960
        }
    ],
    "buffers" : [
        {
            "byteLength" : 22104,
            "uri" : "data:application/octet-stream;base64,"
        }
    ]
}
