{
    "asset" : {
        "generator" : "Khronos glTF Blender I/O v1.8.19",
        "version" : "2.0"
    },
    "scene" : 0,
    "scenes" : [
        {
            "name" : "Scene",
            "nodes" : [
                0
            ]
        }
    ],
    "nodes" : [
        {
            "mesh" : 0,
            "name" : "hair6",
            "translation" : [
                0,
                0,
                0.060697171837091446
            ]
        }
    ],
    "materials" : [
        {
            "doubleSided" : true,
            "name" : "Hair.012",
            "pbrMetallicRoughness" : {
                "baseColorFactor" : [
                    0.1065310463309288,
                    0.04143121466040611,
                    0.009360600262880325,
                    1
                ],
                "metallicFactor" : 0,
                "roughnessFactor" : 0.5
            }
        }
    ],
    "meshes" : [
        {
            "name" : "Sph\u00e8re.028",
            "primitives" : [
                {
                    "attributes" : {
                        "POSITION" : 0,
                        "NORMAL" : 1,
                        "TEXCOORD_0" : 2
                    },
                    "indices" : 3,
                    "material" : 0
                }
            ]
        }
    ],
    "accessors" : [
        {
            "bufferView" : 0,
            "componentType" : 5126,
            "count" : 654,
            "max" : [
                0.6212395429611206,
                3.322239875793457,
                0.6184247732162476
            ],
            "min" : [
                -0.6216416358947754,
                2.095301628112793,
                -0.5955594778060913
            ],
            "type" : "VEC3"
        },
        {
            "bufferView" : 1,
            "componentType" : 5126,
            "count" : 654,
            "type" : "VEC3"
        },
        {
            "bufferView" : 2,
            "componentType" : 5126,
            "count" : 654,
            "type" : "VEC2"
        },
        {
            "bufferView" : 3,
            "componentType" : 5123,
            "count" : 1368,
            "type" : "SCALAR"
        }
    ],
    "bufferViews" : [
        {
            "buffer" : 0,
            "byteLength" : 7848,
            "byteOffset" : 0
        },
        {
            "buffer" : 0,
            "byteLength" : 7848,
            "byteOffset" : 7848
        },
        {
            "buffer" : 0,
            "byteLength" : 5232,
            "byteOffset" : 15696
        },
        {
            "buffer" : 0,
            "byteLength" : 2736,
            "byteOffset" : 20928
        }
    ],
    "buffers" : [
        {
            "byteLength" : 23664,
            "uri" : "data:application/octet-stream;base64,"
        }
    ]
}
