{
    "asset" : {
        "generator" : "Khronos glTF Blender I/O v1.8.19",
        "version" : "2.0"
    },
    "scene" : 0,
    "scenes" : [
        {
            "name" : "Scene",
            "nodes" : [
                0
            ]
        }
    ],
    "nodes" : [
        {
            "mesh" : 0,
            "name" : "hair5",
            "translation" : [
                0,
                0,
                0.05131576210260391
            ]
        }
    ],
    "materials" : [
        {
            "doubleSided" : true,
            "name" : "Hair.011",
            "pbrMetallicRoughness" : {
                "baseColorFactor" : [
                    0.1065310463309288,
                    0.04143121466040611,
                    0.009360600262880325,
                    1
                ],
                "metallicFactor" : 0,
                "roughnessFactor" : 0.5
            }
        }
    ],
    "meshes" : [
        {
            "name" : "Sph\u00e8re.027",
            "primitives" : [
                {
                    "attributes" : {
                        "POSITION" : 0,
                        "NORMAL" : 1,
                        "TEXCOORD_0" : 2
                    },
                    "indices" : 3,
                    "material" : 0
                }
            ]
        }
    ],
    "accessors" : [
        {
            "bufferView" : 0,
            "componentType" : 5126,
            "count" : 404,
            "max" : [
                0.5998109579086304,
                3.3312885761260986,
                0.6361227035522461
            ],
            "min" : [
                -0.6330116391181946,
                2.145918607711792,
                -0.5825328826904297
            ],
            "type" : "VEC3"
        },
        {
            "bufferView" : 1,
            "componentType" : 5126,
            "count" : 404,
            "type" : "VEC3"
        },
        {
            "bufferView" : 2,
            "componentType" : 5126,
            "count" : 404,
            "type" : "VEC2"
        },
        {
            "bufferView" : 3,
            "componentType" : 5123,
            "count" : 1020,
            "type" : "SCALAR"
        }
    ],
    "bufferViews" : [
        {
            "buffer" : 0,
            "byteLength" : 4848,
            "byteOffset" : 0
        },
        {
            "buffer" : 0,
            "byteLength" : 4848,
            "byteOffset" : 4848
        },
        {
            "buffer" : 0,
            "byteLength" : 3232,
            "byteOffset" : 9696
        },
        {
            "buffer" : 0,
            "byteLength" : 2040,
            "byteOffset" : 12928
        }
    ],
    "buffers" : [
        {
            "byteLength" : 14968,
            "uri" : "data:application/octet-stream;base64,"
        }
    ]
}
