{
    "asset" : {
        "generator" : "Khronos glTF Blender I/O v1.8.19",
        "version" : "2.0"
    },
    "scene" : 0,
    "scenes" : [
        {
            "name" : "Scene",
            "nodes" : [
                0
            ]
        }
    ],
    "nodes" : [
        {
            "mesh" : 0,
            "name" : "hair1"
        }
    ],
    "materials" : [
        {
            "doubleSided" : true,
            "name" : "Hair.005",
            "pbrMetallicRoughness" : {
                "baseColorFactor" : [
                    0.1065310463309288,
                    0.04143121466040611,
                    0.009360600262880325,
                    1
                ],
                "metallicFactor" : 0,
                "roughnessFactor" : 0.5
            }
        }
    ],
    "meshes" : [
        {
            "name" : "Sph\u00e8re.021",
            "primitives" : [
                {
                    "attributes" : {
                        "POSITION" : 0,
                        "NORMAL" : 1,
                        "TEXCOORD_0" : 2
                    },
                    "indices" : 3,
                    "material" : 0
                }
            ]
        }
    ],
    "accessors" : [
        {
            "bufferView" : 0,
            "componentType" : 5126,
            "count" : 358,
            "max" : [
                0.5885508060455322,
                3.334333658218384,
                0.615082323551178
            ],
            "min" : [
                -0.6333716511726379,
                1.9149367809295654,
                -0.6798895001411438
            ],
            "type" : "VEC3"
        },
        {
            "bufferView" : 1,
            "componentType" : 5126,
            "count" : 358,
            "type" : "VEC3"
        },
        {
            "bufferView" : 2,
            "componentType" : 5126,
            "count" : 358,
            "type" : "VEC2"
        },
        {
            "bufferView" : 3,
            "componentType" : 5123,
            "count" : 1032,
            "type" : "SCALAR"
        }
    ],
    "bufferViews" : [
        {
            "buffer" : 0,
            "byteLength" : 4296,
            "byteOffset" : 0
        },
        {
            "buffer" : 0,
            "byteLength" : 4296,
            "byteOffset" : 4296
        },
        {
            "buffer" : 0,
            "byteLength" : 2864,
            "byteOffset" : 8592
        },
        {
            "buffer" : 0,
            "byteLength" : 2064,
            "byteOffset" : 11456
        }
    ],
    "buffers" : [
        {
            "byteLength" : 13520,
            "uri" : "data:application/octet-stream;base64,"
        }
    ]
}
