{
    "asset" : {
        "generator" : "Khronos glTF Blender I/O v1.8.19",
        "version" : "2.0"
    },
    "scene" : 0,
    "scenes" : [
        {
            "name" : "Scene",
            "nodes" : [
                0
            ]
        }
    ],
    "nodes" : [
        {
            "mesh" : 0,
            "name" : "hair8",
            "translation" : [
                0,
                0,
                0.05657631903886795
            ]
        }
    ],
    "materials" : [
        {
            "doubleSided" : true,
            "name" : "Hair.014",
            "pbrMetallicRoughness" : {
                "baseColorFactor" : [
                    0.031062303110957146,
                    0.00800917949527502,
                    0.0023538703098893166,
                    1
                ],
                "metallicFactor" : 0,
                "roughnessFactor" : 0.5
            }
        }
    ],
    "meshes" : [
        {
            "name" : "Sph\u00e8re.032",
            "primitives" : [
                {
                    "attributes" : {
                        "POSITION" : 0,
                        "NORMAL" : 1,
                        "TEXCOORD_0" : 2
                    },
                    "indices" : 3,
                    "material" : 0
                }
            ]
        }
    ],
    "accessors" : [
        {
            "bufferView" : 0,
            "componentType" : 5126,
            "count" : 448,
            "max" : [
                0.596903383731842,
                3.3075222969055176,
                0.5914764404296875
            ],
            "min" : [
                -0.596903383731842,
                1.8503248691558838,
                -0.5947384834289551
            ],
            "type" : "VEC3"
        },
        {
            "bufferView" : 1,
            "componentType" : 5126,
            "count" : 448,
            "type" : "VEC3"
        },
        {
            "bufferView" : 2,
            "componentType" : 5126,
            "count" : 448,
            "type" : "VEC2"
        },
        {
            "bufferView" : 3,
            "componentType" : 5123,
            "count" : 1236,
            "type" : "SCALAR"
        }
    ],
    "bufferViews" : [
        {
            "buffer" : 0,
            "byteLength" : 5376,
            "byteOffset" : 0
        },
        {
            "buffer" : 0,
            "byteLength" : 5376,
            "byteOffset" : 5376
        },
        {
            "buffer" : 0,
            "byteLength" : 3584,
            "byteOffset" : 10752
        },
        {
            "buffer" : 0,
            "byteLength" : 2472,
            "byteOffset" : 14336
        }
    ],
    "buffers" : [
        {
            "byteLength" : 16808,
            "uri" : "data:application/octet-stream;base64,"
        }
    ]
}
